<?xml version="1.0" encoding="utf-8" ?>
<svg baseProfile="full" height="3000" version="1.1" width="3000" xmlns="http://www.w3.org/2000/svg" xmlns:ev="http://www.w3.org/2001/xml-events" xmlns:xlink="http://www.w3.org/1999/xlink"><defs /><rect fill="black" height="3000" width="3000" x="0" y="0" /><polyline fill="none" points="2970.5882352941176,1500.0 33.39638723722031,1391.8168182357826" stroke="white" stroke-linecap="round" stroke-linejoin="round" stroke-width="1" /><circle cx="2970.5882352941176" cy="1500.0" fill="#929191" r="6" /><circle cx="2970.145321612065" cy="1463.9099580545405" fill="#929191" r="6" /><circle cx="2968.8168473605474" cy="1427.8416554008556" fill="#929191" r="6" /><circle cx="2966.60361276278" cy="1391.8168182357833" fill="#929191" r="6" /><circle cx="2963.5069509885243" cy="1355.8571465741757" fill="#929191" r="6" /><circle cx="2959.528727351044" cy="1319.9843011776231" fill="#929191" r="6" /><circle cx="2954.6713381835016" cy="1284.219890506821" fill="#929191" r="6" /><circle cx="2948.9377093955013" cy="1248.5854577054392" fill="#929191" r="6" /><circle cx="2942.331294710633" cy="1213.102467623341" fill="#929191" r="6" /><circle cx="2934.856073586071" cy="1177.7922938869563" fill="#929191" r="6" /><circle cx="2926.516548815506" cy="1142.6762060246122" fill="#929191" r="6" /><circle cx="2917.317743816823" cy="1107.7753566545614" fill="#929191" r="6" /><circle cx="2907.2651996061895" cy="1073.1107687434378" fill="#929191" r="6" /><circle cx="2896.364971460348" cy="1038.7033229428068" fill="#929191" r="6" /><circle cx="2884.623625269148" cy="1004.573745011441" fill="#929191" r="6" /><circle cx="2872.0482335804986" cy="970.7425933308996" fill="#929191" r="6" /><circle cx="2858.6463713401276" cy="937.2302465219268" fill="#929191" r="6" /><circle cx="2844.4261113287216" cy="904.0568911691327" fill="#929191" r="6" /><circle cx="2829.3960192991817" cy="871.24250966135" fill="#929191" r="6" /><circle cx="2813.565148816934" cy="838.8068681549906" fill="#929191" r="6" /><circle cx="2796.943035806404" cy="806.7695046676504" fill="#929191" r="6" /><circle cx="2779.5396928069285" cy="775.1497173091411" fill="#929191" r="6" /><circle cx="2761.3656029415765" cy="743.966552657027" fill="#929191" r="6" /><circle cx="2742.4317136025106" cy="713.2387942836805" fill="#929191" r="6" /><circle cx="2722.7494298566844" cy="682.9849514417615" fill="#929191" r="6" /><circle cx="2702.3306075758583" cy="653.2232479149332" fill="#929191" r="6" /><circle cx="2681.1875462950657" cy="623.9716110405393" fill="#929191" r="6" /><circle cx="2659.332981803833" cy="595.247660910843" fill="#929191" r="6" /><circle cx="2636.780078474613" cy="567.0686997593448" fill="#929191" r="6" /><circle cx="2613.5424213330657" cy="539.451701538564" fill="#929191" r="6" /><circle cx="2589.63400787494" cy="512.4133016955612" fill="#929191" r="6" /><circle cx="2565.0692396345107" cy="485.9697871513722" fill="#929191" r="6" /><circle cx="2539.8629135096285" cy="460.1370864903713" fill="#929191" r="6" /><circle cx="2514.0302128486283" cy="434.93076036548985" fill="#929191" r="6" /><circle cx="2487.586698304439" cy="410.36599212505996" fill="#929191" r="6" /><circle cx="2460.5482984614364" cy="386.4575786669344" fill="#929191" r="6" /><circle cx="2432.931300240655" cy="363.21992152538695" fill="#929191" r="6" /><circle cx="2404.752339089157" cy="340.6670181961671" fill="#929191" r="6" /><circle cx="2376.028388959461" cy="318.81245370493417" fill="#929191" r="6" /><circle cx="2346.776752085067" cy="297.6693924241417" fill="#929191" r="6" /><circle cx="2317.0150485582385" cy="277.25057014331566" fill="#929191" r="6" /><circle cx="2286.7612057163196" cy="257.56828639748954" fill="#929191" r="6" /><circle cx="2256.033447342973" cy="238.63439705842327" fill="#929191" r="6" /><circle cx="2224.8502826908593" cy="220.46030719307174" fill="#929191" r="6" /><circle cx="2193.23049533235" cy="203.05696419359575" fill="#929191" r="6" /><circle cx="2161.1931318450097" cy="186.43485118306592" fill="#929191" r="6" /><circle cx="2128.75749033865" cy="170.6039807008185" fill="#929191" r="6" /><circle cx="2095.9431088308675" cy="155.5738886712783" fill="#929191" r="6" /><circle cx="2062.769753478073" cy="141.35362865987233" fill="#929191" r="6" /><circle cx="2029.2574066691004" cy="127.95176641950157" fill="#929191" r="6" /><circle cx="1995.4262549885589" cy="115.37637473085194" fill="#929191" r="6" /><circle cx="1961.2966770571936" cy="103.63502853965213" fill="#929191" r="6" /><circle cx="1926.8892312565622" cy="92.7348003938101" fill="#929191" r="6" /><circle cx="1892.2246433454386" cy="82.6822561831767" fill="#929191" r="6" /><circle cx="1857.3237939753883" cy="73.48345118449396" fill="#929191" r="6" /><circle cx="1822.2077061130437" cy="65.14392641392874" fill="#929191" r="6" /><circle cx="1786.8975323766595" cy="57.668705289367075" fill="#929191" r="6" /><circle cx="1751.4145422945608" cy="51.062290604498514" fill="#929191" r="6" /><circle cx="1715.780109493179" cy="45.328661816498524" fill="#929191" r="6" /><circle cx="1680.0156988223769" cy="40.47127264895589" fill="#929191" r="6" /><circle cx="1644.1428534258246" cy="36.49304901147554" fill="#929191" r="6" /><circle cx="1608.1831817642171" cy="33.39638723722005" fill="#929191" r="6" /><circle cx="1572.1583445991444" cy="31.183152639452594" fill="#929191" r="6" /><circle cx="1536.0900419454595" cy="29.854678387935095" fill="#929191" r="6" /><circle cx="1500.0" cy="29.41176470588225" fill="#929191" r="6" /><circle cx="1463.909958054541" cy="29.854678387935095" fill="#929191" r="6" /><circle cx="1427.8416554008559" cy="31.183152639452594" fill="#929191" r="6" /><circle cx="1391.8168182357833" cy="33.39638723722005" fill="#929191" r="6" /><circle cx="1355.8571465741754" cy="36.49304901147554" fill="#929191" r="6" /><circle cx="1319.9843011776234" cy="40.47127264895589" fill="#929191" r="6" /><circle cx="1284.219890506821" cy="45.328661816498524" fill="#929191" r="6" /><circle cx="1248.5854577054392" cy="51.062290604498514" fill="#929191" r="6" /><circle cx="1213.102467623341" cy="57.668705289367075" fill="#929191" r="6" /><circle cx="1177.7922938869563" cy="65.14392641392874" fill="#929191" r="6" /><circle cx="1142.6762060246122" cy="73.48345118449396" fill="#929191" r="6" /><circle cx="1107.7753566545614" cy="82.6822561831767" fill="#929191" r="6" /><circle cx="1073.110768743438" cy="92.7348003938101" fill="#929191" r="6" /><circle cx="1038.7033229428068" cy="103.63502853965213" fill="#929191" r="6" /><circle cx="1004.5737450114412" cy="115.37637473085194" fill="#929191" r="6" /><circle cx="970.7425933308996" cy="127.95176641950157" fill="#929191" r="6" /><circle cx="937.2302465219269" cy="141.35362865987233" fill="#929191" r="6" /><circle cx="904.0568911691327" cy="155.5738886712783" fill="#929191" r="6" /><circle cx="871.2425096613501" cy="170.6039807008185" fill="#929191" r="6" /><circle cx="838.8068681549901" cy="186.43485118306592" fill="#929191" r="6" /><circle cx="806.7695046676504" cy="203.05696419359575" fill="#929191" r="6" /><circle cx="775.1497173091414" cy="220.4603071930714" fill="#929191" r="6" /><circle cx="743.9665526570271" cy="238.63439705842327" fill="#929191" r="6" /><circle cx="713.2387942836808" cy="257.56828639748954" fill="#929191" r="6" /><circle cx="682.9849514417618" cy="277.25057014331566" fill="#929191" r="6" /><circle cx="653.2232479149333" cy="297.6693924241417" fill="#929191" r="6" /><circle cx="623.9716110405392" cy="318.81245370493417" fill="#929191" r="6" /><circle cx="595.2476609108431" cy="340.6670181961671" fill="#929191" r="6" /><circle cx="567.0686997593451" cy="363.2199215253866" fill="#929191" r="6" /><circle cx="539.451701538564" cy="386.45757866693407" fill="#929191" r="6" /><circle cx="512.4133016955611" cy="410.3659921250603" fill="#929191" r="6" /><circle cx="485.9697871513722" cy="434.93076036548985" fill="#929191" r="6" /><circle cx="460.1370864903714" cy="460.1370864903713" fill="#929191" r="6" /><circle cx="434.9307603654901" cy="485.96978715137186" fill="#929191" r="6" /><circle cx="410.3659921250605" cy="512.4133016955612" fill="#929191" r="6" /><circle cx="386.45757866693435" cy="539.451701538564" fill="#929191" r="6" /><circle cx="363.2199215253868" cy="567.0686997593448" fill="#929191" r="6" /><circle cx="340.6670181961673" cy="595.2476609108427" fill="#929191" r="6" /><circle cx="318.81245370493406" cy="623.971611040539" fill="#929191" r="6" /><circle cx="297.6693924241418" cy="653.2232479149332" fill="#929191" r="6" /><circle cx="277.2505701433157" cy="682.9849514417615" fill="#929191" r="6" /><circle cx="257.56828639748954" cy="713.2387942836805" fill="#929191" r="6" /><circle cx="238.63439705842356" cy="743.9665526570267" fill="#929191" r="6" /><circle cx="220.46030719307157" cy="775.1497173091409" fill="#929191" r="6" /><circle cx="203.05696419359572" cy="806.76950466765" fill="#929191" r="6" /><circle cx="186.4348511830659" cy="838.80686815499" fill="#929191" r="6" /><circle cx="170.60398070081865" cy="871.24250966135" fill="#929191" r="6" /><circle cx="155.57388867127844" cy="904.0568911691323" fill="#929191" r="6" /><circle cx="141.35362865987247" cy="937.2302465219268" fill="#929191" r="6" /><circle cx="127.95176641950171" cy="970.7425933308996" fill="#929191" r="6" /><circle cx="115.37637473085194" cy="1004.5737450114407" fill="#929191" r="6" /><circle cx="103.63502853965197" cy="1038.7033229428068" fill="#929191" r="6" /><circle cx="92.73480039381059" cy="1073.1107687434373" fill="#929191" r="6" /><circle cx="82.68225618317673" cy="1107.7753566545614" fill="#929191" r="6" /><circle cx="73.48345118449419" cy="1142.6762060246117" fill="#929191" r="6" /><circle cx="65.14392641392877" cy="1177.7922938869556" fill="#929191" r="6" /><circle cx="57.66870528936704" cy="1213.1024676233403" fill="#929191" r="6" /><circle cx="51.06229060449822" cy="1248.5854577054392" fill="#929191" r="6" /><circle cx="45.32866181649853" cy="1284.2198905068208" fill="#929191" r="6" /><circle cx="40.47127264895595" cy="1319.9843011776227" fill="#929191" r="6" /><circle cx="36.49304901147529" cy="1355.8571465741754" fill="#929191" r="6" /><circle cx="33.39638723722031" cy="1391.8168182357826" fill="#929191" r="6" /><circle cx="31.18315263945237" cy="1427.8416554008559" fill="#929191" r="6" /><circle cx="29.85467838793495" cy="1463.9099580545405" fill="#929191" r="6" /><circle cx="29.41176470588238" cy="1499.9999999999998" fill="#929191" r="6" /><circle cx="29.85467838793495" cy="1536.090041945459" fill="#929191" r="6" /><circle cx="31.18315263945237" cy="1572.1583445991437" fill="#929191" r="6" /><circle cx="33.39638723722031" cy="1608.1831817642167" fill="#929191" r="6" /><circle cx="36.49304901147513" cy="1644.1428534258243" fill="#929191" r="6" /><circle cx="40.47127264895595" cy="1680.0156988223766" fill="#929191" r="6" /><circle cx="45.32866181649853" cy="1715.7801094931785" fill="#929191" r="6" /><circle cx="51.06229060449807" cy="1751.41454229456" fill="#929191" r="6" /><circle cx="57.66870528936704" cy="1786.8975323766595" fill="#929191" r="6" /><circle cx="65.1439264139286" cy="1822.2077061130437" fill="#929191" r="6" /><circle cx="73.48345118449419" cy="1857.3237939753878" fill="#929191" r="6" /><circle cx="82.68225618317658" cy="1892.2246433454384" fill="#929191" r="6" /><circle cx="92.73480039381042" cy="1926.889231256562" fill="#929191" r="6" /><circle cx="103.63502853965181" cy="1961.296677057193" fill="#929191" r="6" /><circle cx="115.37637473085177" cy="1995.4262549885589" fill="#929191" r="6" /><circle cx="127.95176641950157" cy="2029.2574066691" fill="#929191" r="6" /><circle cx="141.3536286598723" cy="2062.7697534780727" fill="#929191" r="6" /><circle cx="155.57388867127844" cy="2095.9431088308675" fill="#929191" r="6" /><circle cx="170.60398070081848" cy="2128.75749033865" fill="#929191" r="6" /><circle cx="186.43485118306572" cy="2161.1931318450097" fill="#929191" r="6" /><circle cx="203.05696419359555" cy="2193.2304953323496" fill="#929191" r="6" /><circle cx="220.4603071930714" cy="2224.8502826908584" fill="#929191" r="6" /><circle cx="238.6343970584234" cy="2256.033447342973" fill="#929191" r="6" /><circle cx="257.5682863974894" cy="2286.761205716319" fill="#929191" r="6" /><circle cx="277.25057014331554" cy="2317.015048558238" fill="#929191" r="6" /><circle cx="297.6693924241416" cy="2346.776752085067" fill="#929191" r="6" /><circle cx="318.8124537049339" cy="2376.0283889594607" fill="#929191" r="6" /><circle cx="340.66701819616713" cy="2404.752339089157" fill="#929191" r="6" /><circle cx="363.2199215253866" cy="2432.9313002406548" fill="#929191" r="6" /><circle cx="386.4575786669342" cy="2460.548298461436" fill="#929191" r="6" /><circle cx="410.36599212506013" cy="2487.586698304439" fill="#929191" r="6" /><circle cx="434.93076036548973" cy="2514.030212848628" fill="#929191" r="6" /><circle cx="460.1370864903711" cy="2539.8629135096285" fill="#929191" r="6" /><circle cx="485.96978715137203" cy="2565.06923963451" fill="#929191" r="6" /><circle cx="512.4133016955608" cy="2589.6340078749395" fill="#929191" r="6" /><circle cx="539.451701538563" cy="2613.542421333065" fill="#929191" r="6" /><circle cx="567.0686997593442" cy="2636.7800784746128" fill="#929191" r="6" /><circle cx="595.2476609108422" cy="2659.3329818038324" fill="#929191" r="6" /><circle cx="623.9716110405395" cy="2681.187546295066" fill="#929191" r="6" /><circle cx="653.2232479149335" cy="2702.3306075758587" fill="#929191" r="6" /><circle cx="682.9849514417615" cy="2722.7494298566844" fill="#929191" r="6" /><circle cx="713.2387942836805" cy="2742.4317136025106" fill="#929191" r="6" /><circle cx="743.9665526570268" cy="2761.3656029415765" fill="#929191" r="6" /><circle cx="775.149717309141" cy="2779.539692806928" fill="#929191" r="6" /><circle cx="806.76950466765" cy="2796.943035806404" fill="#929191" r="6" /><circle cx="838.8068681549897" cy="2813.565148816934" fill="#929191" r="6" /><circle cx="871.2425096613493" cy="2829.3960192991813" fill="#929191" r="6" /><circle cx="904.0568911691316" cy="2844.426111328721" fill="#929191" r="6" /><circle cx="937.2302465219261" cy="2858.646371340127" fill="#929191" r="6" /><circle cx="970.7425933308999" cy="2872.0482335804986" fill="#929191" r="6" /><circle cx="1004.5737450114412" cy="2884.6236252691483" fill="#929191" r="6" /><circle cx="1038.7033229428068" cy="2896.364971460348" fill="#929191" r="6" /><circle cx="1073.1107687434376" cy="2907.2651996061895" fill="#929191" r="6" /><circle cx="1107.775356654561" cy="2917.317743816823" fill="#929191" r="6" /><circle cx="1142.6762060246115" cy="2926.5165488155058" fill="#929191" r="6" /><circle cx="1177.7922938869556" cy="2934.856073586071" fill="#929191" r="6" /><circle cx="1213.1024676233403" cy="2942.331294710633" fill="#929191" r="6" /><circle cx="1248.5854577054386" cy="2948.9377093955013" fill="#929191" r="6" /><circle cx="1284.21989050682" cy="2954.6713381835016" fill="#929191" r="6" /><circle cx="1319.9843011776236" cy="2959.528727351044" fill="#929191" r="6" /><circle cx="1355.8571465741759" cy="2963.5069509885247" fill="#929191" r="6" /><circle cx="1391.8168182357833" cy="2966.6036127627794" fill="#929191" r="6" /><circle cx="1427.8416554008559" cy="2968.816847360548" fill="#929191" r="6" /><circle cx="1463.9099580545405" cy="2970.145321612065" fill="#929191" r="6" /><circle cx="1499.9999999999998" cy="2970.5882352941176" fill="#929191" r="6" /><circle cx="1536.090041945459" cy="2970.145321612065" fill="#929191" r="6" /><circle cx="1572.1583445991437" cy="2968.816847360548" fill="#929191" r="6" /><circle cx="1608.183181764216" cy="2966.6036127627794" fill="#929191" r="6" /><circle cx="1644.1428534258237" cy="2963.5069509885247" fill="#929191" r="6" /><circle cx="1680.015698822376" cy="2959.528727351044" fill="#929191" r="6" /><circle cx="1715.7801094931792" cy="2954.6713381835016" fill="#929191" r="6" /><circle cx="1751.4145422945608" cy="2948.9377093955018" fill="#929191" r="6" /><circle cx="1786.8975323766595" cy="2942.331294710633" fill="#929191" r="6" /><circle cx="1822.2077061130437" cy="2934.856073586071" fill="#929191" r="6" /><circle cx="1857.3237939753878" cy="2926.5165488155058" fill="#929191" r="6" /><circle cx="1892.2246433454384" cy="2917.317743816823" fill="#929191" r="6" /><circle cx="1926.889231256562" cy="2907.2651996061895" fill="#929191" r="6" /><circle cx="1961.296677057193" cy="2896.364971460348" fill="#929191" r="6" /><circle cx="1995.4262549885584" cy="2884.6236252691483" fill="#929191" r="6" /><circle cx="2029.2574066690993" cy="2872.0482335804986" fill="#929191" r="6" /><circle cx="2062.7697534780737" cy="2858.646371340127" fill="#929191" r="6" /><circle cx="2095.9431088308675" cy="2844.426111328721" fill="#929191" r="6" /><circle cx="2128.75749033865" cy="2829.3960192991817" fill="#929191" r="6" /><circle cx="2161.1931318450097" cy="2813.565148816934" fill="#929191" r="6" /><circle cx="2193.230495332349" cy="2796.9430358064046" fill="#929191" r="6" /><circle cx="2224.850282690859" cy="2779.5396928069285" fill="#929191" r="6" /><circle cx="2256.033447342973" cy="2761.3656029415765" fill="#929191" r="6" /><circle cx="2286.761205716319" cy="2742.4317136025106" fill="#929191" r="6" /><circle cx="2317.0150485582376" cy="2722.7494298566844" fill="#929191" r="6" /><circle cx="2346.776752085066" cy="2702.3306075758587" fill="#929191" r="6" /><circle cx="2376.02838895946" cy="2681.1875462950666" fill="#929191" r="6" /><circle cx="2404.7523390891574" cy="2659.332981803833" fill="#929191" r="6" /><circle cx="2432.9313002406557" cy="2636.780078474613" fill="#929191" r="6" /><circle cx="2460.548298461436" cy="2613.5424213330657" fill="#929191" r="6" /><circle cx="2487.586698304439" cy="2589.63400787494" fill="#929191" r="6" /><circle cx="2514.030212848628" cy="2565.0692396345103" fill="#929191" r="6" /><circle cx="2539.8629135096285" cy="2539.862913509629" fill="#929191" r="6" /><circle cx="2565.06923963451" cy="2514.0302128486283" fill="#929191" r="6" /><circle cx="2589.6340078749395" cy="2487.5866983044393" fill="#929191" r="6" /><circle cx="2613.5424213330652" cy="2460.5482984614373" fill="#929191" r="6" /><circle cx="2636.7800784746123" cy="2432.9313002406557" fill="#929191" r="6" /><circle cx="2659.3329818038324" cy="2404.752339089158" fill="#929191" r="6" /><circle cx="2681.187546295066" cy="2376.0283889594607" fill="#929191" r="6" /><circle cx="2702.3306075758583" cy="2346.7767520850666" fill="#929191" r="6" /><circle cx="2722.7494298566844" cy="2317.0150485582385" fill="#929191" r="6" /><circle cx="2742.4317136025106" cy="2286.7612057163196" fill="#929191" r="6" /><circle cx="2761.3656029415765" cy="2256.0334473429734" fill="#929191" r="6" /><circle cx="2779.539692806928" cy="2224.8502826908593" fill="#929191" r="6" /><circle cx="2796.943035806404" cy="2193.23049533235" fill="#929191" r="6" /><circle cx="2813.565148816934" cy="2161.1931318450106" fill="#929191" r="6" /><circle cx="2829.396019299181" cy="2128.7574903386508" fill="#929191" r="6" /><circle cx="2844.426111328721" cy="2095.9431088308684" fill="#929191" r="6" /><circle cx="2858.646371340127" cy="2062.769753478074" fill="#929191" r="6" /><circle cx="2872.0482335804986" cy="2029.2574066691" fill="#929191" r="6" /><circle cx="2884.623625269148" cy="1995.4262549885586" fill="#929191" r="6" /><circle cx="2896.364971460348" cy="1961.2966770571936" fill="#929191" r="6" /><circle cx="2907.2651996061895" cy="1926.8892312565627" fill="#929191" r="6" /><circle cx="2917.317743816823" cy="1892.224643345439" fill="#929191" r="6" /><circle cx="2926.516548815506" cy="1857.3237939753885" fill="#929191" r="6" /><circle cx="2934.856073586071" cy="1822.2077061130442" fill="#929191" r="6" /><circle cx="2942.331294710633" cy="1786.8975323766601" fill="#929191" r="6" /><circle cx="2948.9377093955013" cy="1751.4145422945614" fill="#929191" r="6" /><circle cx="2954.671338183501" cy="1715.78010949318" fill="#929191" r="6" /><circle cx="2959.528727351044" cy="1680.0156988223762" fill="#929191" r="6" /><circle cx="2963.5069509885243" cy="1644.1428534258243" fill="#929191" r="6" /><circle cx="2966.60361276278" cy="1608.1831817642167" fill="#929191" r="6" /><circle cx="2968.8168473605474" cy="1572.1583445991441" fill="#929191" r="6" /><circle cx="2970.145321612065" cy="1536.0900419454595" fill="#929191" r="6" /></svg>