<?xml version="1.0" encoding="utf-8" ?>
<svg baseProfile="full" height="3000" version="1.1" width="3000" xmlns="http://www.w3.org/2000/svg" xmlns:ev="http://www.w3.org/2001/xml-events" xmlns:xlink="http://www.w3.org/1999/xlink"><defs /><rect fill="#ffffff" height="3000" width="3000" x="0" y="0" /><polyline fill="none" points="2970.5882352941176,1500.0 57.66870528936702,1213.1024676233403 2959.528727351044,1319.9843011776234 40.47127264895598,1319.9843011776231 2934.856073586071,1177.7922938869563 103.63502853965196,1038.703322942807 2917.317743816823,1107.7753566545614 73.48345118449416,1142.6762060246115 2942.331294710633,1213.102467623341 51.0622906044981,1751.41454229456 2954.671338183501,1284.219890506821 33.396387237220296,1391.8168182357826 2963.506950988525,1355.8571465741757 29.41176470588235,1499.9999999999998 2963.506950988525,1644.1428534258243 36.493049011475115,1644.1428534258246 2934.856073586071,1177.7922938869563 65.14392641392874,1177.7922938869558 2954.671338183501,1284.219890506821 73.48345118449416,1857.3237939753878 2970.1453216120653,1463.909958054541 29.854678387934985,1463.9099580545405 2959.528727351044,1319.9843011776234 115.37637473085198,1004.5737450114407 2942.331294710633,1213.102467623341 33.396387237220296,1391.8168182357826 2872.0482335804986,2029.2574066691 40.47127264895598,1680.0156988223766 2970.5882352941176,1500.0 31.183152639452278,1572.1583445991437 2948.9377093955013,1751.4145422945614 45.32866181649848,1715.7801094931785 2907.265199606189,1926.8892312565627 82.68225618317652,1892.2246433454384 2884.6236252691483,1995.4262549885586 45.32866181649848,1284.2198905068208 2896.364971460348,1038.7033229428068 103.63502853965196,1038.703322942807 2963.506950988525,1355.8571465741757 73.48345118449416,1857.3237939753878 2970.1453216120653,1536.0900419454597 51.062290604498266,1248.5854577054395 2954.671338183501,1715.78010949318 29.41176470588235,1499.9999999999998 2896.364971460348,1038.7033229428068 82.68225618317669,1107.7753566545614 2926.5165488155058,1142.6762060246117 29.854678387934985,1536.090041945459 2970.1453216120653,1463.909958054541 340.66701819616713,2404.752339089157 2917.317743816823,1892.224643345439 33.396387237220296,1608.1831817642167 2948.9377093955013,1751.4145422945614 297.6693924241417,2346.776752085067 2966.60361276278,1391.8168182357833 31.183152639452278,1427.8416554008563 2948.9377093955013,1248.5854577054395 57.66870528936702,1213.1024676233403 2968.816847360548,1427.8416554008559 363.2199215253867,567.0686997593448 2954.671338183501,1284.219890506821 340.6670181961673,595.247660910843 2970.1453216120653,1463.909958054541 92.73480039381053,1073.1107687434378 2926.5165488155058,1142.6762060246117 141.3536286598725,937.2302465219265 2884.6236252691483,1004.573745011441 33.396387237220296,1391.8168182357826 2959.528727351044,1680.0156988223762 238.6343970584233,2256.033447342973 2872.0482335804986,2029.2574066691 127.95176641950151,2029.2574066691 2813.565148816934,2161.1931318450106 40.47127264895598,1680.0156988223766 2942.3312947106324,1786.8975323766601 65.14392641392858,1822.2077061130437 2858.646371340127,2062.769753478074 363.21992152538655,2432.9313002406548 2779.539692806928,2224.8502826908593 170.60398070081845,2128.75749033865 2742.43171360251,2286.7612057163196 29.41176470588235,1499.9999999999998 2968.816847360548,1572.1583445991441 40.47127264895598,1319.9843011776231 2948.9377093955013,1751.4145422945614 141.35362865987233,2062.7697534780727 2844.426111328721,2095.9431088308684 92.73480039381036,1926.889231256562 2934.856073586071,1822.2077061130442 186.4348511830656,2161.1931318450097 2702.3306075758583,2346.7767520850666 115.37637473085181,1995.4262549885589 2829.396019299181,2128.7574903386508 363.21992152538655,2432.9313002406548 2963.506950988525,1355.8571465741757 65.14392641392874,1177.7922938869558 2942.331294710633,1213.102467623341 127.95176641950167,970.7425933308996 2896.364971460348,1038.7033229428068 203.05696419359566,806.7695046676504 2926.5165488155058,1142.6762060246117 73.48345118449416,1142.6762060246115 2907.265199606189,1073.110768743438 512.413301695561,410.3659921250603 713.2387942836805,2742.4317136025106 623.9716110405392,318.81245370493383 623.9716110405395,2681.1875462950666 485.9697871513721,434.93076036548985 1177.7922938869558,2934.856073586071 871.2425096613503,170.6039807008185 1038.7033229428066,2896.364971460348 1004.5737450114414,115.37637473085161 970.7425933309001,2872.0482335804986 1073.1107687434378,92.73480039381043 1391.8168182357833,2966.6036127627794 1177.7922938869563,65.14392641392874 1427.8416554008559,2968.816847360548 1248.5854577054395,51.062290604498514 1319.9843011776236,2959.528727351044 1319.9843011776234,40.47127264895622 1355.8571465741759,2963.5069509885247 1142.676206024612,73.48345118449429 1004.5737450114414,2884.623625269148 904.0568911691327,155.57388867127864 1107.775356654561,2917.317743816823 838.8068681549901,186.43485118306558 970.7425933309001,2872.0482335804986 871.2425096613503,170.6039807008185 1073.1107687434376,2907.2651996061895 1038.7033229428068,103.63502853965213 2062.7697534780737,2858.646371340127 1857.3237939753883,73.48345118449429 1892.2246433454384,2917.3177438168236 1786.8975323766595,57.668705289367075 1572.1583445991434,2968.816847360548 1500.0000000000002,29.411764705882582 1608.183181764216,2966.6036127627794 1427.8416554008559,31.18315263945226 1644.1428534258237,2963.5069509885247 1355.8571465741754,36.493049011474874 1391.8168182357833,2966.6036127627794 904.0568911691327,155.57388867127864 1213.1024676233403,2942.331294710633 937.2302465219269,141.35362865987267 1142.6762060246115,2926.5165488155058 410.3659921250605,512.4133016955612 2948.9377093955013,1248.5854577054395 36.493049011475115,1644.1428534258246 2907.265199606189,1926.8892312565627 410.36599212506013,2487.586698304439 2813.565148816934,2161.1931318450106 257.5682863974894,2286.761205716319 2963.506950988525,1355.8571465741757 103.63502853965178,1961.296677057193 2954.671338183501,1715.78010949318 33.396387237220296,1608.1831817642167 2966.60361276278,1608.1831817642167 92.73480039381036,1926.889231256562 2959.528727351044,1319.9843011776234 65.14392641392858,1822.2077061130437 2896.364971460348,1961.2966770571936 203.05696419359552,2193.2304953323496 2917.317743816823,1892.224643345439 31.183152639452278,1427.8416554008563 2959.528727351044,1319.9843011776234 31.183152639452278,1572.1583445991437 2970.1453216120653,1536.0900419454597 297.6693924241417,2346.776752085067 2844.426111328721,2095.9431088308684 220.46030719307134,2224.850282690859 2613.5424213330652,2460.5482984614373 363.21992152538655,2432.9313002406548 2681.187546295066,2376.0283889594607 434.93076036548973,2514.030212848628 713.2387942836808,257.5682863974892 653.2232479149334,2702.3306075758587 806.7695046676504,203.05696419359543 1499.9999999999998,2970.5882352941176 1004.5737450114414,115.37637473085161 806.7695046676503,2796.943035806404 460.1370864903713,460.1370864903713 595.2476609108422,2659.3329818038324 567.0686997593451,363.2199215253866 743.9665526570267,2761.3656029415765 434.9307603654901,485.9697871513722 2942.331294710633,1213.102467623341 36.493049011475286,1355.8571465741754 2966.60361276278,1608.1831817642167 340.6670181961673,595.247660910843 2959.528727351044,1319.9843011776234 297.66939242414185,653.2232479149332 2934.856073586071,1177.7922938869563 73.48345118449416,1142.6762060246115 2829.3960192991813,871.24250966135 115.37637473085198,1004.5737450114407 2968.816847360548,1427.8416554008559 29.854678387934985,1463.9099580545405 2907.265199606189,1926.8892312565627 127.95176641950151,2029.2574066691 2779.539692806928,2224.8502826908593 485.9697871513719,2565.06923963451 775.1497173091411,220.4603071930714 1004.5737450114414,2884.623625269148 1391.8168182357833,33.39638723722005 1572.1583445991434,2968.816847360548 1463.909958054541,29.85467838793476 1680.015698822376,2959.528727351044 1073.1107687434378,92.73480039381043 1857.3237939753878,2926.5165488155058 1536.090041945459,29.85467838793476 1822.2077061130437,2934.8560735860715 1608.1831817642167,33.39638723722005 1751.4145422945608,2948.9377093955018 1680.0156988223769,40.47127264895622 1786.8975323766595,2942.331294710633 2062.769753478073,141.35362865987267 2095.9431088308675,2844.426111328721 2095.9431088308675,155.57388867127864 2193.230495332349,2796.9430358064046 2161.1931318450097,186.43485118306558 1391.8168182357833,2966.6036127627794 1284.219890506821,45.32866181649886 1284.2198905068203,2954.6713381835016 1644.1428534258246,36.49304901147521 1751.4145422945608,2948.9377093955018 1995.4262549885589,115.37637473085161 1995.4262549885584,2884.6236252691483 2062.769753478073,141.35362865987267 1248.5854577054388,2948.9377093955013 1213.102467623341,57.668705289367075 1319.9843011776236,2959.528727351044 1177.7922938869563,65.14392641392874 937.2302465219261,2858.646371340127 970.7425933308998,127.95176641950157 775.1497173091409,2779.5396928069285 595.2476609108429,340.6670181961674 460.1370864903709,2539.8629135096285 539.451701538564,386.4575786669344 2926.5165488155058,1142.6762060246117 512.413301695561,410.3659921250603 1213.1024676233403,2942.331294710633 1038.7033229428068,103.63502853965213 1107.775356654561,2917.317743816823 743.9665526570271,238.6343970584236 1463.9099580545405,2970.145321612065 1213.102467623341,57.668705289367075 1644.1428534258237,2963.5069509885247 1536.090041945459,29.85467838793476 1608.183181764216,2966.6036127627794 1391.8168182357833,33.39638723722005 2161.1931318450097,2813.565148816934 2256.033447342973,238.6343970584236 2317.015048558238,2722.749429856685 386.4575786669342,2460.548298461436 2942.3312947106324,1786.8975323766601 36.493049011475286,1355.8571465741754 2796.9430358064046,806.7695046676507 82.68225618317669,1107.7753566545614 2858.646371340127,937.2302465219268 51.062290604498266,1248.5854577054395 2954.671338183501,1284.219890506821 386.45757866693435,539.4517015385636 2966.60361276278,1391.8168182357833 45.32866181649848,1715.7801094931785 2884.6236252691483,1995.4262549885586 103.63502853965178,1961.296677057193 2963.506950988525,1644.1428534258243 51.062290604498266,1248.5854577054395 2966.60361276278,1391.8168182357833 386.4575786669342,2460.548298461436 2761.3656029415765,2256.0334473429734 512.4133016955607,2589.6340078749395 682.9849514417617,277.25057014331566 623.9716110405395,2681.1875462950666 806.7695046676504,203.05696419359543 1177.7922938869558,2934.856073586071 434.9307603654901,485.9697871513722 2907.265199606189,1073.110768743438 623.9716110405392,318.81245370493383 485.9697871513719,2565.06923963451 2514.030212848628,2565.0692396345103 277.25057014331543,2317.015048558238 2722.749429856684,2317.0150485582385 51.0622906044981,1751.41454229456 2959.528727351044,1680.0156988223762 45.32866181649848,1284.2198905068208 2934.856073586071,1177.7922938869563 386.45757866693435,539.4517015385636 2948.9377093955013,1248.5854577054395 103.63502853965196,1038.703322942807 2907.265199606189,1926.8892312565627 512.4133016955607,2589.6340078749395 2829.396019299181,2128.7574903386508 238.6343970584233,2256.033447342973 2779.539692806928,2224.8502826908593 29.854678387934985,1463.9099580545405 2844.426111328721,2095.9431088308684 31.183152639452278,1572.1583445991437 2926.5165488155058,1857.3237939753885 115.37637473085181,1995.4262549885589 2858.646371340127,2062.769753478074 51.0622906044981,1751.41454229456 2934.856073586071,1822.2077061130442 33.396387237220296,1391.8168182357826 2917.317743816823,1107.7753566545614 567.0686997593451,363.2199215253866 410.36599212506013,2487.586698304439 2514.030212848628,2565.0692396345103 127.95176641950151,2029.2574066691 2613.5424213330652,2460.5482984614373 434.93076036548973,2514.030212848628 2432.9313002406557,2636.780078474613 539.451701538563,2613.5424213330652 713.2387942836808,257.5682863974892 1073.1107687434376,2907.2651996061895 904.0568911691327,155.57388867127864 904.0568911691316,2844.426111328721 485.9697871513721,434.93076036548985 539.451701538563,2613.5424213330652 2742.43171360251,2286.7612057163196 155.57388867127838,2095.9431088308675 2829.396019299181,2128.7574903386508 318.81245370493383,2376.0283889594607 2796.9430358064037,2193.23049533235 82.68225618317652,1892.2246433454384 2968.816847360548,1572.1583445991441 51.062290604498266,1248.5854577054395 2659.332981803833,595.247660910843 82.68225618317669,1107.7753566545614 2966.60361276278,1608.1831817642167 277.2505701433156,682.9849514417615 2966.60361276278,1391.8168182357833 29.854678387934985,1536.090041945459 2963.506950988525,1644.1428534258243 257.56828639748954,713.2387942836808 2942.331294710633,1213.102467623341 410.3659921250605,512.4133016955612 2917.317743816823,1107.7753566545614 743.9665526570271,238.6343970584236 713.2387942836805,2742.4317136025106 2761.3656029415765,2256.0334473429734 31.183152639452278,1572.1583445991437 2959.528727351044,1680.0156988223762 65.14392641392874,1177.7922938869558 2742.4317136025106,713.2387942836808 141.3536286598725,937.2302465219265 2917.317743816823,1107.7753566545614 512.413301695561,410.3659921250603 2896.364971460348,1038.7033229428068 653.2232479149333,297.6693924241417 775.1497173091409,2779.5396928069285 2681.187546295066,2376.0283889594607 539.451701538563,2613.5424213330652 2317.015048558238,2722.749429856685 2317.015048558239,277.250570143316 1715.7801094931792,2954.6713381835016 1926.889231256562,92.73480039381043 2029.2574066690993,2872.0482335804986 1892.2246433454386,82.68225618317703 1463.9099580545405,2970.145321612065 937.2302465219269,141.35362865987267 1427.8416554008559,2968.816847360548 1319.9843011776234,40.47127264895622 2128.7574903386503,2829.3960192991817 1995.4262549885589,115.37637473085161 1892.2246433454384,2917.3177438168236 1822.2077061130437,65.14392641392874 1786.8975323766595,2942.331294710633 1715.780109493179,45.32866181649886 1926.8892312565617,2907.2651996061895 1751.4145422945608,51.062290604498514 1073.1107687434376,2907.2651996061895 1177.7922938869563,65.14392641392874 653.2232479149334,2702.3306075758587 743.9665526570271,238.6343970584236 970.7425933309001,2872.0482335804986 1355.8571465741754,36.493049011474874 1572.1583445991434,2968.816847360548 970.7425933308998,127.95176641950157 2659.332981803832,2404.752339089158 297.6693924241417,2346.776752085067 682.9849514417617,277.25057014331566 220.46030719307134,2224.850282690859 2896.364971460348,1961.2966770571936 36.493049011475115,1644.1428534258246 2948.9377093955013,1751.4145422945614 318.81245370493383,2376.0283889594607 713.2387942836808,257.5682863974892 2934.856073586071,1177.7922938869563 29.854678387934985,1536.090041945459 2954.671338183501,1284.219890506821 127.95176641950167,970.7425933308996 775.1497173091409,2779.5396928069285 434.9307603654901,485.9697871513722 485.9697871513719,2565.06923963451 2346.7767520850657,2702.3306075758587 2487.586698304439,410.36599212505996 2193.230495332349,2796.9430358064046 2128.7574903386503,170.60398070081882 2128.7574903386503,2829.3960192991817 2460.5482984614364,386.45757866693475 2539.8629135096285,2539.862913509629 103.63502853965178,1961.296677057193 2966.60361276278,1391.8168182357833 92.73480039381053,1073.1107687434378 2968.816847360548,1572.1583445991441 363.2199215253867,567.0686997593448 2926.5165488155058,1142.6762060246117 871.2425096613503,170.6039807008185 539.451701538563,2613.5424213330652 539.451701538564,386.4575786669344 363.21992152538655,2432.9313002406548 2896.364971460348,1961.2966770571936 65.14392641392874,1177.7922938869558 2970.1453216120653,1463.909958054541 277.25057014331543,2317.015048558238 2884.6236252691483,1995.4262549885586 434.93076036548973,2514.030212848628 2487.586698304439,2589.63400787494 595.2476609108422,2659.3329818038324 2659.332981803832,2404.752339089158 871.2425096613495,2829.3960192991813 2829.396019299181,2128.7574903386508 57.66870528936702,1786.8975323766595 2926.5165488155058,1857.3237939753885 318.81245370493383,2376.0283889594607 2376.02838895946,2681.1875462950666 141.35362865987233,2062.7697534780727 2858.646371340127,2062.769753478074 40.47127264895598,1319.9843011776231 2968.816847360548,1427.8416554008559 318.812453704934,623.971611040539 2926.5165488155058,1142.6762060246117 170.60398070081862,871.24250966135 713.2387942836805,2742.4317136025106 2346.7767520850657,2702.3306075758587 2224.850282690859,220.46030719307174 2256.0334473429725,2761.3656029415765 2193.2304953323496,203.05696419359575 2029.2574066690993,2872.0482335804986 2029.2574066691004,127.95176641950157 1463.9099580545405,2970.145321612065 1572.1583445991441,31.18315263945226 1608.183181764216,2966.6036127627794 838.8068681549901,186.43485118306558 1038.7033229428066,2896.364971460348 410.3659921250605,512.4133016955612 2970.1453216120653,1536.0900419454597 485.9697871513721,434.93076036548985 2942.331294710633,1213.102467623341 871.2425096613503,170.6039807008185 1355.8571465741759,2963.5069509885247 1284.219890506821,45.32866181649886 1926.8892312565617,2907.2651996061895 1961.2966770571932,103.63502853965213 1038.7033229428066,2896.364971460348 1427.8416554008559,31.18315263945226 1680.015698822376,2959.528727351044 1038.7033229428068,103.63502853965213 1822.2077061130437,2934.8560735860715 1715.780109493179,45.32866181649886 1961.2966770571925,2896.364971460348 1786.8975323766595,57.668705289367075 434.93076036548973,2514.030212848628 2796.9430358064037,2193.23049533235 340.66701819616713,2404.752339089157 2722.749429856684,2317.0150485582385 410.36599212506013,2487.586698304439 682.9849514417617,277.25057014331566 2884.6236252691483,1004.573745011441 539.451701538564,386.4575786669344 1248.5854577054388,2948.9377093955013 838.8068681549901,186.43485118306558 2948.9377093955013,1248.5854577054395 73.48345118449416,1142.6762060246115 775.1497173091409,2779.5396928069285 186.43485118306577,838.80686815499 838.8068681549897,2813.565148816934 2193.230495332349,2796.9430358064046 485.9697871513719,2565.06923963451 2966.60361276278,1608.1831817642167 29.854678387934985,1463.9099580545405 2589.63400787494,512.4133016955612 2565.0692396345094,2514.0302128486287 2514.030212848628,434.93076036548985 2256.0334473429725,2761.3656029415765 567.0686997593441,2636.7800784746128 595.2476609108429,340.6670181961674 277.25057014331543,2317.015048558238 653.2232479149333,297.6693924241417 203.05696419359552,2193.2304953323496 155.57388867127838,904.0568911691323 595.2476609108422,2659.3329818038324 2963.506950988525,1355.8571465741757 297.66939242414185,653.2232479149332 2968.816847360548,1572.1583445991441 33.396387237220296,1608.1831817642167 2722.749429856684,2317.0150485582385 460.1370864903709,2539.8629135096285 2376.02838895946,2681.1875462950666 653.2232479149334,2702.3306075758587 2128.7574903386503,2829.3960192991817 970.7425933309001,2872.0482335804986 775.1497173091411,220.4603071930714 2954.671338183501,1715.78010949318 595.2476609108429,340.6670181961674 2907.265199606189,1073.110768743438 806.7695046676504,203.05696419359543 2954.671338183501,1284.219890506821 460.1370864903713,460.1370864903713 512.4133016955607,2589.6340078749395 838.8068681549901,186.43485118306558 2884.6236252691483,1995.4262549885586 51.062290604498266,1248.5854577054395 297.6693924241417,2346.776752085067 2966.60361276278,1608.1831817642167 40.47127264895598,1680.0156988223766 2896.364971460348,1961.2966770571936 115.37637473085181,1995.4262549885589 257.56828639748954,713.2387942836808 257.5682863974894,2286.761205716319 2487.586698304439,2589.63400787494 2487.586698304439,410.36599212505996 36.493049011475286,1355.8571465741754 2970.5882352941176,1500.0 318.812453704934,623.971611040539 2959.528727351044,1319.9843011776234 775.1497173091411,220.4603071930714 340.66701819616713,2404.752339089157 2954.671338183501,1715.78010949318 220.4603071930715,775.1497173091411 82.68225618317652,1892.2246433454384 2702.3306075758583,2346.7767520850666 1142.6762060246115,2926.5165488155058 1073.1107687434378,92.73480039381043 2813.565148816934,2161.1931318450106 682.9849514417615,2722.7494298566844 2029.2574066690993,2872.0482335804986 2432.931300240655,363.21992152538695 1892.2246433454384,2917.3177438168236 92.73480039381036,1926.889231256562 238.63439705842347,743.9665526570267 2959.528727351044,1680.0156988223762 297.6693924241417,2346.776752085067 2432.9313002406557,2636.780078474613 2346.7767520850666,297.6693924241417 1857.3237939753878,2926.5165488155058 743.9665526570267,2761.3656029415765 2286.761205716319,2742.4317136025106 2565.0692396345103,485.9697871513722 2613.5424213330652,2460.5482984614373 904.0568911691316,2844.426111328721 203.05696419359566,806.7695046676504 73.48345118449416,1857.3237939753878 2917.317743816823,1892.224643345439 57.66870528936702,1213.1024676233403 743.9665526570267,2761.3656029415765 2742.43171360251,2286.7612057163196 257.5682863974894,2286.761205716319 45.32866181649848,1284.2198905068208 186.4348511830656,2161.1931318450097 141.3536286598725,937.2302465219265 2636.780078474613,567.0686997593448 2613.5424213330652,2460.5482984614373 1213.1024676233403,2942.331294710633 2844.426111328721,2095.9431088308684 653.2232479149333,297.6693924241417 2968.816847360548,1427.8416554008559 713.2387942836808,257.5682863974892 238.6343970584233,2256.033447342973 2565.0692396345094,2514.0302128486287 567.0686997593441,2636.7800784746128 2128.7574903386503,2829.3960192991817 1073.1107687434376,2907.2651996061895 460.1370864903713,460.1370864903713 2813.565148816934,838.8068681549903 33.396387237220296,1391.8168182357826 682.9849514417615,2722.7494298566844 1892.2246433454384,2917.3177438168236 2926.5165488155058,1857.3237939753885 82.68225618317669,1107.7753566545614 2761.3656029415765,743.966552657027 567.0686997593451,363.2199215253866 2970.1453216120653,1536.0900419454597 103.63502853965196,1038.703322942807 73.48345118449416,1857.3237939753878 2858.646371340127,2062.769753478074 682.9849514417617,277.25057014331566 595.2476609108422,2659.3329818038324 2317.015048558238,2722.749429856685 937.2302465219261,2858.646371340127 2193.230495332349,2796.9430358064046 2948.9377093955013,1248.5854577054395 806.7695046676504,203.05696419359543 155.57388867127838,2095.9431088308675 40.47127264895598,1319.9843011776231 2796.9430358064037,2193.23049533235 141.35362865987233,2062.7697534780727 277.2505701433156,682.9849514417615 277.25057014331543,2317.015048558238 2963.506950988525,1355.8571465741757 743.9665526570271,238.6343970584236 2872.0482335804986,2029.2574066691 51.0622906044981,1751.41454229456 170.60398070081862,871.24250966135 2926.5165488155058,1857.3237939753885 1004.5737450114414,115.37637473085161 871.2425096613495,2829.3960192991813 2884.6236252691483,1995.4262549885586 512.4133016955607,2589.6340078749395 2702.3306075758583,2346.7767520850666 970.7425933309001,2872.0482335804986 2779.539692806928,2224.8502826908593 1391.8168182357833,33.39638723722005 1822.2077061130437,2934.8560735860715 1004.5737450114414,2884.623625269148 1961.2966770571925,2896.364971460348 653.2232479149334,2702.3306075758587 2460.5482984614364,2613.5424213330657 2404.752339089157,340.6670181961674 155.57388867127838,904.0568911691323 73.48345118449416,1857.3237939753878 2286.7612057163196,257.5682863974898 2256.0334473429725,2761.3656029415765 623.9716110405395,2681.1875462950666 1284.219890506821,45.32866181649886 155.57388867127838,2095.9431088308675 2487.586698304439,2589.63400787494 2742.4317136025106,713.2387942836808 220.4603071930715,775.1497173091411 567.0686997593441,2636.7800784746128 2404.7523390891574,2659.332981803833 2966.60361276278,1391.8168182357833 115.37637473085198,1004.5737450114407 238.6343970584233,2256.033447342973 31.183152639452278,1427.8416554008563 127.95176641950151,2029.2574066691 775.1497173091411,220.4603071930714 2917.317743816823,1107.7753566545614 871.2425096613503,170.6039807008185 2907.265199606189,1926.8892312565627 1644.1428534258237,2963.5069509885247 1680.0156988223769,40.47127264895622 203.05696419359552,2193.2304953323496 82.68225618317669,1107.7753566545614 386.4575786669342,2460.548298461436 2589.6340078749395,2487.5866983044393 2539.8629135096285,460.1370864903713 103.63502853965196,1038.703322942807 45.32866181649848,1715.7801094931785 2761.3656029415765,2256.0334473429734 141.35362865987233,2062.7697534780727 33.396387237220296,1391.8168182357826 1680.0156988223769,40.47127264895622 1319.9843011776236,2959.528727351044 1107.7753566545614,82.68225618317703 567.0686997593441,2636.7800784746128 904.0568911691327,155.57388867127864 318.81245370493383,2376.0283889594607 65.14392641392874,1177.7922938869558 40.47127264895598,1680.0156988223766 1177.7922938869558,2934.856073586071 1857.3237939753878,2926.5165488155058 2128.7574903386503,170.60398070081882 1995.4262549885584,2884.6236252691483 2376.028388959461,318.81245370493417 2376.02838895946,2681.1875462950666 904.0568911691316,2844.426111328721 2029.2574066690993,2872.0482335804986 2942.331294710633,1213.102467623341 2161.1931318450097,2813.565148816934 806.7695046676503,2796.943035806404 238.63439705842347,743.9665526570267 1177.7922938869558,2934.856073586071 970.7425933308998,127.95176641950157 2796.9430358064037,2193.23049533235 363.2199215253867,567.0686997593448 2565.0692396345103,485.9697871513722 2722.749429856684,2317.0150485582385 2954.671338183501,1715.78010949318 2589.6340078749395,2487.5866983044393 2934.856073586071,1177.7922938869563 904.0568911691327,155.57388867127864 2917.317743816823,1892.224643345439 410.3659921250605,512.4133016955612 297.6693924241417,2346.776752085067 838.8068681549901,186.43485118306558 2934.856073586071,1177.7922938869563 127.95176641950167,970.7425933308996 539.451701538563,2613.5424213330652 2636.7800784746128,2432.9313002406557 2948.9377093955013,1751.4145422945614 1995.4262549885584,2884.6236252691483 970.7425933309001,2872.0482335804986 2256.0334473429725,2761.3656029415765 410.36599212506013,2487.586698304439 297.66939242414185,653.2232479149332 2884.6236252691483,1995.4262549885586 1715.7801094931792,2954.6713381835016 1107.775356654561,2917.317743816823 1608.1831817642167,33.39638723722005 103.63502853965178,1961.296677057193 29.854678387934985,1463.9099580545405 57.66870528936702,1786.8975323766595 743.9665526570267,2761.3656029415765 1248.5854577054395,51.062290604498514 1355.8571465741759,2963.5069509885247 1857.3237939753878,2926.5165488155058 2954.671338183501,1715.78010949318 2432.9313002406557,2636.780078474613 2970.5882352941176,1500.0 653.2232479149333,297.6693924241417 115.37637473085181,1995.4262549885589 73.48345118449416,1142.6762060246115 186.4348511830656,2161.1931318450097 2376.02838895946,2681.1875462950666 2317.015048558239,277.250570143316 51.0622906044981,1751.41454229456 1038.7033229428066,2896.364971460348 1786.8975323766595,2942.331294710633 410.3659921250605,512.4133016955612 2896.364971460348,1961.2966770571936 2742.43171360251,2286.7612057163196 2942.3312947106324,1786.8975323766601 434.9307603654901,485.9697871513722 2128.7574903386503,170.60398070081882 2224.8502826908584,2779.5396928069285 1284.2198905068203,2954.6713381835016 1463.909958054541,29.85467838793476 2813.565148816934,2161.1931318450106 386.4575786669342,2460.548298461436 51.062290604498266,1248.5854577054395 65.14392641392858,1822.2077061130437 186.43485118306577,838.80686815499 653.2232479149333,297.6693924241417 2966.60361276278,1608.1831817642167 220.46030719307134,2224.850282690859 92.73480039381053,1073.1107687434378 743.9665526570271,238.6343970584236 460.1370864903709,2539.8629135096285 2224.8502826908584,2779.5396928069285 653.2232479149334,2702.3306075758587 2968.816847360548,1427.8416554008559 937.2302465219269,141.35362865987267 1038.7033229428066,2896.364971460348 340.66701819616713,2404.752339089157 2858.646371340127,2062.769753478074 2934.856073586071,1822.2077061130442 1073.1107687434378,92.73480039381043" stroke="#000000" stroke-linecap="round" stroke-linejoin="round" stroke-width="1" /><circle cx="2970.5882352941176" cy="1500.0" fill="#929191" r="6" /><circle cx="2970.1453216120653" cy="1463.909958054541" fill="#929191" r="6" /><circle cx="2968.816847360548" cy="1427.8416554008559" fill="#929191" r="6" /><circle cx="2966.60361276278" cy="1391.8168182357833" fill="#929191" r="6" /><circle cx="2963.506950988525" cy="1355.8571465741757" fill="#929191" r="6" /><circle cx="2959.528727351044" cy="1319.9843011776234" fill="#929191" r="6" /><circle cx="2954.671338183501" cy="1284.219890506821" fill="#929191" r="6" /><circle cx="2948.9377093955013" cy="1248.5854577054395" fill="#929191" r="6" /><circle cx="2942.331294710633" cy="1213.102467623341" fill="#929191" r="6" /><circle cx="2934.856073586071" cy="1177.7922938869563" fill="#929191" r="6" /><circle cx="2926.5165488155058" cy="1142.6762060246117" fill="#929191" r="6" /><circle cx="2917.317743816823" cy="1107.7753566545614" fill="#929191" r="6" /><circle cx="2907.265199606189" cy="1073.110768743438" fill="#929191" r="6" /><circle cx="2896.364971460348" cy="1038.7033229428068" fill="#929191" r="6" /><circle cx="2884.6236252691483" cy="1004.573745011441" fill="#929191" r="6" /><circle cx="2872.0482335804986" cy="970.7425933308999" fill="#929191" r="6" /><circle cx="2858.646371340127" cy="937.2302465219268" fill="#929191" r="6" /><circle cx="2844.426111328721" cy="904.0568911691327" fill="#929191" r="6" /><circle cx="2829.3960192991813" cy="871.24250966135" fill="#929191" r="6" /><circle cx="2813.565148816934" cy="838.8068681549903" fill="#929191" r="6" /><circle cx="2796.9430358064046" cy="806.7695046676507" fill="#929191" r="6" /><circle cx="2779.5396928069285" cy="775.1497173091411" fill="#929191" r="6" /><circle cx="2761.3656029415765" cy="743.966552657027" fill="#929191" r="6" /><circle cx="2742.4317136025106" cy="713.2387942836808" fill="#929191" r="6" /><circle cx="2722.749429856684" cy="682.9849514417615" fill="#929191" r="6" /><circle cx="2702.3306075758583" cy="653.2232479149335" fill="#929191" r="6" /><circle cx="2681.187546295066" cy="623.9716110405393" fill="#929191" r="6" /><circle cx="2659.332981803833" cy="595.247660910843" fill="#929191" r="6" /><circle cx="2636.780078474613" cy="567.0686997593448" fill="#929191" r="6" /><circle cx="2613.5424213330652" cy="539.4517015385636" fill="#929191" r="6" /><circle cx="2589.63400787494" cy="512.4133016955612" fill="#929191" r="6" /><circle cx="2565.0692396345103" cy="485.9697871513722" fill="#929191" r="6" /><circle cx="2539.8629135096285" cy="460.1370864903713" fill="#929191" r="6" /><circle cx="2514.030212848628" cy="434.93076036548985" fill="#929191" r="6" /><circle cx="2487.586698304439" cy="410.36599212505996" fill="#929191" r="6" /><circle cx="2460.5482984614364" cy="386.45757866693475" fill="#929191" r="6" /><circle cx="2432.931300240655" cy="363.21992152538695" fill="#929191" r="6" /><circle cx="2404.752339089157" cy="340.6670181961674" fill="#929191" r="6" /><circle cx="2376.028388959461" cy="318.81245370493417" fill="#929191" r="6" /><circle cx="2346.7767520850666" cy="297.6693924241417" fill="#929191" r="6" /><circle cx="2317.015048558239" cy="277.250570143316" fill="#929191" r="6" /><circle cx="2286.7612057163196" cy="257.5682863974898" fill="#929191" r="6" /><circle cx="2256.033447342973" cy="238.6343970584236" fill="#929191" r="6" /><circle cx="2224.850282690859" cy="220.46030719307174" fill="#929191" r="6" /><circle cx="2193.2304953323496" cy="203.05696419359575" fill="#929191" r="6" /><circle cx="2161.1931318450097" cy="186.43485118306558" fill="#929191" r="6" /><circle cx="2128.7574903386503" cy="170.60398070081882" fill="#929191" r="6" /><circle cx="2095.9431088308675" cy="155.57388867127864" fill="#929191" r="6" /><circle cx="2062.769753478073" cy="141.35362865987267" fill="#929191" r="6" /><circle cx="2029.2574066691004" cy="127.95176641950157" fill="#929191" r="6" /><circle cx="1995.4262549885589" cy="115.37637473085161" fill="#929191" r="6" /><circle cx="1961.2966770571932" cy="103.63502853965213" fill="#929191" r="6" /><circle cx="1926.889231256562" cy="92.73480039381043" fill="#929191" r="6" /><circle cx="1892.2246433454386" cy="82.68225618317703" fill="#929191" r="6" /><circle cx="1857.3237939753883" cy="73.48345118449429" fill="#929191" r="6" /><circle cx="1822.2077061130437" cy="65.14392641392874" fill="#929191" r="6" /><circle cx="1786.8975323766595" cy="57.668705289367075" fill="#929191" r="6" /><circle cx="1751.4145422945608" cy="51.062290604498514" fill="#929191" r="6" /><circle cx="1715.780109493179" cy="45.32866181649886" fill="#929191" r="6" /><circle cx="1680.0156988223769" cy="40.47127264895622" fill="#929191" r="6" /><circle cx="1644.1428534258246" cy="36.49304901147521" fill="#929191" r="6" /><circle cx="1608.1831817642167" cy="33.39638723722005" fill="#929191" r="6" /><circle cx="1572.1583445991441" cy="31.18315263945226" fill="#929191" r="6" /><circle cx="1536.090041945459" cy="29.85467838793476" fill="#929191" r="6" /><circle cx="1500.0000000000002" cy="29.411764705882582" fill="#929191" r="6" /><circle cx="1463.909958054541" cy="29.85467838793476" fill="#929191" r="6" /><circle cx="1427.8416554008559" cy="31.18315263945226" fill="#929191" r="6" /><circle cx="1391.8168182357833" cy="33.39638723722005" fill="#929191" r="6" /><circle cx="1355.8571465741754" cy="36.493049011474874" fill="#929191" r="6" /><circle cx="1319.9843011776234" cy="40.47127264895622" fill="#929191" r="6" /><circle cx="1284.219890506821" cy="45.32866181649886" fill="#929191" r="6" /><circle cx="1248.5854577054395" cy="51.062290604498514" fill="#929191" r="6" /><circle cx="1213.102467623341" cy="57.668705289367075" fill="#929191" r="6" /><circle cx="1177.7922938869563" cy="65.14392641392874" fill="#929191" r="6" /><circle cx="1142.676206024612" cy="73.48345118449429" fill="#929191" r="6" /><circle cx="1107.7753566545614" cy="82.68225618317703" fill="#929191" r="6" /><circle cx="1073.1107687434378" cy="92.73480039381043" fill="#929191" r="6" /><circle cx="1038.7033229428068" cy="103.63502853965213" fill="#929191" r="6" /><circle cx="1004.5737450114414" cy="115.37637473085161" fill="#929191" r="6" /><circle cx="970.7425933308998" cy="127.95176641950157" fill="#929191" r="6" /><circle cx="937.2302465219269" cy="141.35362865987267" fill="#929191" r="6" /><circle cx="904.0568911691327" cy="155.57388867127864" fill="#929191" r="6" /><circle cx="871.2425096613503" cy="170.6039807008185" fill="#929191" r="6" /><circle cx="838.8068681549901" cy="186.43485118306558" fill="#929191" r="6" /><circle cx="806.7695046676504" cy="203.05696419359543" fill="#929191" r="6" /><circle cx="775.1497173091411" cy="220.4603071930714" fill="#929191" r="6" /><circle cx="743.9665526570271" cy="238.6343970584236" fill="#929191" r="6" /><circle cx="713.2387942836808" cy="257.5682863974892" fill="#929191" r="6" /><circle cx="682.9849514417617" cy="277.25057014331566" fill="#929191" r="6" /><circle cx="653.2232479149333" cy="297.6693924241417" fill="#929191" r="6" /><circle cx="623.9716110405392" cy="318.81245370493383" fill="#929191" r="6" /><circle cx="595.2476609108429" cy="340.6670181961674" fill="#929191" r="6" /><circle cx="567.0686997593451" cy="363.2199215253866" fill="#929191" r="6" /><circle cx="539.451701538564" cy="386.4575786669344" fill="#929191" r="6" /><circle cx="512.413301695561" cy="410.3659921250603" fill="#929191" r="6" /><circle cx="485.9697871513721" cy="434.93076036548985" fill="#929191" r="6" /><circle cx="460.1370864903713" cy="460.1370864903713" fill="#929191" r="6" /><circle cx="434.9307603654901" cy="485.9697871513722" fill="#929191" r="6" /><circle cx="410.3659921250605" cy="512.4133016955612" fill="#929191" r="6" /><circle cx="386.45757866693435" cy="539.4517015385636" fill="#929191" r="6" /><circle cx="363.2199215253867" cy="567.0686997593448" fill="#929191" r="6" /><circle cx="340.6670181961673" cy="595.247660910843" fill="#929191" r="6" /><circle cx="318.812453704934" cy="623.971611040539" fill="#929191" r="6" /><circle cx="297.66939242414185" cy="653.2232479149332" fill="#929191" r="6" /><circle cx="277.2505701433156" cy="682.9849514417615" fill="#929191" r="6" /><circle cx="257.56828639748954" cy="713.2387942836808" fill="#929191" r="6" /><circle cx="238.63439705842347" cy="743.9665526570267" fill="#929191" r="6" /><circle cx="220.4603071930715" cy="775.1497173091411" fill="#929191" r="6" /><circle cx="203.05696419359566" cy="806.7695046676504" fill="#929191" r="6" /><circle cx="186.43485118306577" cy="838.80686815499" fill="#929191" r="6" /><circle cx="170.60398070081862" cy="871.24250966135" fill="#929191" r="6" /><circle cx="155.57388867127838" cy="904.0568911691323" fill="#929191" r="6" /><circle cx="141.3536286598725" cy="937.2302465219265" fill="#929191" r="6" /><circle cx="127.95176641950167" cy="970.7425933308996" fill="#929191" r="6" /><circle cx="115.37637473085198" cy="1004.5737450114407" fill="#929191" r="6" /><circle cx="103.63502853965196" cy="1038.703322942807" fill="#929191" r="6" /><circle cx="92.73480039381053" cy="1073.1107687434378" fill="#929191" r="6" /><circle cx="82.68225618317669" cy="1107.7753566545614" fill="#929191" r="6" /><circle cx="73.48345118449416" cy="1142.6762060246115" fill="#929191" r="6" /><circle cx="65.14392641392874" cy="1177.7922938869558" fill="#929191" r="6" /><circle cx="57.66870528936702" cy="1213.1024676233403" fill="#929191" r="6" /><circle cx="51.062290604498266" cy="1248.5854577054395" fill="#929191" r="6" /><circle cx="45.32866181649848" cy="1284.2198905068208" fill="#929191" r="6" /><circle cx="40.47127264895598" cy="1319.9843011776231" fill="#929191" r="6" /><circle cx="36.493049011475286" cy="1355.8571465741754" fill="#929191" r="6" /><circle cx="33.396387237220296" cy="1391.8168182357826" fill="#929191" r="6" /><circle cx="31.183152639452278" cy="1427.8416554008563" fill="#929191" r="6" /><circle cx="29.854678387934985" cy="1463.9099580545405" fill="#929191" r="6" /><circle cx="29.41176470588235" cy="1499.9999999999998" fill="#929191" r="6" /><circle cx="29.854678387934985" cy="1536.090041945459" fill="#929191" r="6" /><circle cx="31.183152639452278" cy="1572.1583445991437" fill="#929191" r="6" /><circle cx="33.396387237220296" cy="1608.1831817642167" fill="#929191" r="6" /><circle cx="36.493049011475115" cy="1644.1428534258246" fill="#929191" r="6" /><circle cx="40.47127264895598" cy="1680.0156988223766" fill="#929191" r="6" /><circle cx="45.32866181649848" cy="1715.7801094931785" fill="#929191" r="6" /><circle cx="51.0622906044981" cy="1751.41454229456" fill="#929191" r="6" /><circle cx="57.66870528936702" cy="1786.8975323766595" fill="#929191" r="6" /><circle cx="65.14392641392858" cy="1822.2077061130437" fill="#929191" r="6" /><circle cx="73.48345118449416" cy="1857.3237939753878" fill="#929191" r="6" /><circle cx="82.68225618317652" cy="1892.2246433454384" fill="#929191" r="6" /><circle cx="92.73480039381036" cy="1926.889231256562" fill="#929191" r="6" /><circle cx="103.63502853965178" cy="1961.296677057193" fill="#929191" r="6" /><circle cx="115.37637473085181" cy="1995.4262549885589" fill="#929191" r="6" /><circle cx="127.95176641950151" cy="2029.2574066691" fill="#929191" r="6" /><circle cx="141.35362865987233" cy="2062.7697534780727" fill="#929191" r="6" /><circle cx="155.57388867127838" cy="2095.9431088308675" fill="#929191" r="6" /><circle cx="170.60398070081845" cy="2128.75749033865" fill="#929191" r="6" /><circle cx="186.4348511830656" cy="2161.1931318450097" fill="#929191" r="6" /><circle cx="203.05696419359552" cy="2193.2304953323496" fill="#929191" r="6" /><circle cx="220.46030719307134" cy="2224.850282690859" fill="#929191" r="6" /><circle cx="238.6343970584233" cy="2256.033447342973" fill="#929191" r="6" /><circle cx="257.5682863974894" cy="2286.761205716319" fill="#929191" r="6" /><circle cx="277.25057014331543" cy="2317.015048558238" fill="#929191" r="6" /><circle cx="297.6693924241417" cy="2346.776752085067" fill="#929191" r="6" /><circle cx="318.81245370493383" cy="2376.0283889594607" fill="#929191" r="6" /><circle cx="340.66701819616713" cy="2404.752339089157" fill="#929191" r="6" /><circle cx="363.21992152538655" cy="2432.9313002406548" fill="#929191" r="6" /><circle cx="386.4575786669342" cy="2460.548298461436" fill="#929191" r="6" /><circle cx="410.36599212506013" cy="2487.586698304439" fill="#929191" r="6" /><circle cx="434.93076036548973" cy="2514.030212848628" fill="#929191" r="6" /><circle cx="460.1370864903709" cy="2539.8629135096285" fill="#929191" r="6" /><circle cx="485.9697871513719" cy="2565.06923963451" fill="#929191" r="6" /><circle cx="512.4133016955607" cy="2589.6340078749395" fill="#929191" r="6" /><circle cx="539.451701538563" cy="2613.5424213330652" fill="#929191" r="6" /><circle cx="567.0686997593441" cy="2636.7800784746128" fill="#929191" r="6" /><circle cx="595.2476609108422" cy="2659.3329818038324" fill="#929191" r="6" /><circle cx="623.9716110405395" cy="2681.1875462950666" fill="#929191" r="6" /><circle cx="653.2232479149334" cy="2702.3306075758587" fill="#929191" r="6" /><circle cx="682.9849514417615" cy="2722.7494298566844" fill="#929191" r="6" /><circle cx="713.2387942836805" cy="2742.4317136025106" fill="#929191" r="6" /><circle cx="743.9665526570267" cy="2761.3656029415765" fill="#929191" r="6" /><circle cx="775.1497173091409" cy="2779.5396928069285" fill="#929191" r="6" /><circle cx="806.7695046676503" cy="2796.943035806404" fill="#929191" r="6" /><circle cx="838.8068681549897" cy="2813.565148816934" fill="#929191" r="6" /><circle cx="871.2425096613495" cy="2829.3960192991813" fill="#929191" r="6" /><circle cx="904.0568911691316" cy="2844.426111328721" fill="#929191" r="6" /><circle cx="937.2302465219261" cy="2858.646371340127" fill="#929191" r="6" /><circle cx="970.7425933309001" cy="2872.0482335804986" fill="#929191" r="6" /><circle cx="1004.5737450114414" cy="2884.623625269148" fill="#929191" r="6" /><circle cx="1038.7033229428066" cy="2896.364971460348" fill="#929191" r="6" /><circle cx="1073.1107687434376" cy="2907.2651996061895" fill="#929191" r="6" /><circle cx="1107.775356654561" cy="2917.317743816823" fill="#929191" r="6" /><circle cx="1142.6762060246115" cy="2926.5165488155058" fill="#929191" r="6" /><circle cx="1177.7922938869558" cy="2934.856073586071" fill="#929191" r="6" /><circle cx="1213.1024676233403" cy="2942.331294710633" fill="#929191" r="6" /><circle cx="1248.5854577054388" cy="2948.9377093955013" fill="#929191" r="6" /><circle cx="1284.2198905068203" cy="2954.6713381835016" fill="#929191" r="6" /><circle cx="1319.9843011776236" cy="2959.528727351044" fill="#929191" r="6" /><circle cx="1355.8571465741759" cy="2963.5069509885247" fill="#929191" r="6" /><circle cx="1391.8168182357833" cy="2966.6036127627794" fill="#929191" r="6" /><circle cx="1427.8416554008559" cy="2968.816847360548" fill="#929191" r="6" /><circle cx="1463.9099580545405" cy="2970.145321612065" fill="#929191" r="6" /><circle cx="1499.9999999999998" cy="2970.5882352941176" fill="#929191" r="6" /><circle cx="1536.0900419454588" cy="2970.145321612065" fill="#929191" r="6" /><circle cx="1572.1583445991434" cy="2968.816847360548" fill="#929191" r="6" /><circle cx="1608.183181764216" cy="2966.6036127627794" fill="#929191" r="6" /><circle cx="1644.1428534258237" cy="2963.5069509885247" fill="#929191" r="6" /><circle cx="1680.015698822376" cy="2959.528727351044" fill="#929191" r="6" /><circle cx="1715.7801094931792" cy="2954.6713381835016" fill="#929191" r="6" /><circle cx="1751.4145422945608" cy="2948.9377093955018" fill="#929191" r="6" /><circle cx="1786.8975323766595" cy="2942.331294710633" fill="#929191" r="6" /><circle cx="1822.2077061130437" cy="2934.8560735860715" fill="#929191" r="6" /><circle cx="1857.3237939753878" cy="2926.5165488155058" fill="#929191" r="6" /><circle cx="1892.2246433454384" cy="2917.3177438168236" fill="#929191" r="6" /><circle cx="1926.8892312565617" cy="2907.2651996061895" fill="#929191" r="6" /><circle cx="1961.2966770571925" cy="2896.364971460348" fill="#929191" r="6" /><circle cx="1995.4262549885584" cy="2884.6236252691483" fill="#929191" r="6" /><circle cx="2029.2574066690993" cy="2872.0482335804986" fill="#929191" r="6" /><circle cx="2062.7697534780737" cy="2858.646371340127" fill="#929191" r="6" /><circle cx="2095.9431088308675" cy="2844.426111328721" fill="#929191" r="6" /><circle cx="2128.7574903386503" cy="2829.3960192991817" fill="#929191" r="6" /><circle cx="2161.1931318450097" cy="2813.565148816934" fill="#929191" r="6" /><circle cx="2193.230495332349" cy="2796.9430358064046" fill="#929191" r="6" /><circle cx="2224.8502826908584" cy="2779.5396928069285" fill="#929191" r="6" /><circle cx="2256.0334473429725" cy="2761.3656029415765" fill="#929191" r="6" /><circle cx="2286.761205716319" cy="2742.4317136025106" fill="#929191" r="6" /><circle cx="2317.015048558238" cy="2722.749429856685" fill="#929191" r="6" /><circle cx="2346.7767520850657" cy="2702.3306075758587" fill="#929191" r="6" /><circle cx="2376.02838895946" cy="2681.1875462950666" fill="#929191" r="6" /><circle cx="2404.7523390891574" cy="2659.332981803833" fill="#929191" r="6" /><circle cx="2432.9313002406557" cy="2636.780078474613" fill="#929191" r="6" /><circle cx="2460.5482984614364" cy="2613.5424213330657" fill="#929191" r="6" /><circle cx="2487.586698304439" cy="2589.63400787494" fill="#929191" r="6" /><circle cx="2514.030212848628" cy="2565.0692396345103" fill="#929191" r="6" /><circle cx="2539.8629135096285" cy="2539.862913509629" fill="#929191" r="6" /><circle cx="2565.0692396345094" cy="2514.0302128486287" fill="#929191" r="6" /><circle cx="2589.6340078749395" cy="2487.5866983044393" fill="#929191" r="6" /><circle cx="2613.5424213330652" cy="2460.5482984614373" fill="#929191" r="6" /><circle cx="2636.7800784746128" cy="2432.9313002406557" fill="#929191" r="6" /><circle cx="2659.332981803832" cy="2404.752339089158" fill="#929191" r="6" /><circle cx="2681.187546295066" cy="2376.0283889594607" fill="#929191" r="6" /><circle cx="2702.3306075758583" cy="2346.7767520850666" fill="#929191" r="6" /><circle cx="2722.749429856684" cy="2317.0150485582385" fill="#929191" r="6" /><circle cx="2742.43171360251" cy="2286.7612057163196" fill="#929191" r="6" /><circle cx="2761.3656029415765" cy="2256.0334473429734" fill="#929191" r="6" /><circle cx="2779.539692806928" cy="2224.8502826908593" fill="#929191" r="6" /><circle cx="2796.9430358064037" cy="2193.23049533235" fill="#929191" r="6" /><circle cx="2813.565148816934" cy="2161.1931318450106" fill="#929191" r="6" /><circle cx="2829.396019299181" cy="2128.7574903386508" fill="#929191" r="6" /><circle cx="2844.426111328721" cy="2095.9431088308684" fill="#929191" r="6" /><circle cx="2858.646371340127" cy="2062.769753478074" fill="#929191" r="6" /><circle cx="2872.0482335804986" cy="2029.2574066691" fill="#929191" r="6" /><circle cx="2884.6236252691483" cy="1995.4262549885586" fill="#929191" r="6" /><circle cx="2896.364971460348" cy="1961.2966770571936" fill="#929191" r="6" /><circle cx="2907.265199606189" cy="1926.8892312565627" fill="#929191" r="6" /><circle cx="2917.317743816823" cy="1892.224643345439" fill="#929191" r="6" /><circle cx="2926.5165488155058" cy="1857.3237939753885" fill="#929191" r="6" /><circle cx="2934.856073586071" cy="1822.2077061130442" fill="#929191" r="6" /><circle cx="2942.3312947106324" cy="1786.8975323766601" fill="#929191" r="6" /><circle cx="2948.9377093955013" cy="1751.4145422945614" fill="#929191" r="6" /><circle cx="2954.671338183501" cy="1715.78010949318" fill="#929191" r="6" /><circle cx="2959.528727351044" cy="1680.0156988223762" fill="#929191" r="6" /><circle cx="2963.506950988525" cy="1644.1428534258243" fill="#929191" r="6" /><circle cx="2966.60361276278" cy="1608.1831817642167" fill="#929191" r="6" /><circle cx="2968.816847360548" cy="1572.1583445991441" fill="#929191" r="6" /><circle cx="2970.1453216120653" cy="1536.0900419454597" fill="#929191" r="6" /></svg>